<?xml version="1.0" standalone="no"?><!DOCTYPE svg PUBLIC "-//W3C//DTD SVG 1.1//EN" "http://www.w3.org/Graphics/SVG/1.1/DTD/svg11.dtd"><svg t="1742783706379" class="icon" viewBox="0 0 1024 1024" version="1.1" xmlns="http://www.w3.org/2000/svg" p-id="4240" xmlns:xlink="http://www.w3.org/1999/xlink" width="128" height="128"><path d="M465.5 507.8c-8.4 0-17-1.5-25.3-4.7L402 488.3l14.4-37.3 38.3 14.7c13.7 5.3 29-0.1 36.4-12.8 0.2-0.4 0.5-0.8 0.7-1.2 58-85.6 109.5-101.9 143.2-106.8 24.2-3.5 241.2-33.5 243.3-33.8l5.5 39.6c-2.2 0.3-219 30.3-243.1 33.8-26.1 3.8-66.4 17.1-115.4 89.1-13 21.8-35.9 34.2-59.8 34.2z" fill="#333333" p-id="4241"></path><path d="M271.9 576.8c-39.7 0-64.6-7.7-76.5-23.3-8.4-11-8.5-23.4-5.8-31.6 2.5-10 20.6-81.5 55.7-155.6 22.1-46.6 46.3-84.5 72-112.6 34-37.1 70.9-57.7 109.8-61 1.1-0.1 2.2-0.1 3.4 0l105.7 8.8h0.3c20.4 2 40.7 0.4 60.6-4.7l270.3-69.2 9.9 38.8L607 235.6c-24.3 6.2-49.2 8.2-74.2 5.8L429 232.7c-66 6.8-116.4 85.3-147.2 150.2-32 67.5-49.8 134.9-53 147.4 5.7 3.3 28.9 12 106.8 1.5 11.1-1.5 30.6-6 38.8-19.1 5.4-14.5 41.2-106.9 98.6-155.4l25.8 30.6c-52.9 44.7-87 139.1-87.4 140-0.4 1-0.8 2-1.3 2.9-12 21.8-36.5 36.2-69.1 40.6-26.9 3.5-49.8 5.4-69.1 5.4z m-44.7-41.5c-0.1 0-0.1 0 0 0-0.1 0-0.1 0 0 0zM224.9 897c-2.1 0-4.3-0.3-6.3-1-8.7-2.9-15.6-9-19.4-17.2-4.3-9.2-4.4-20.8-0.4-31 4.4-11.2 15-20.9 32.3-29.5 13.1-6.6 29.9-12.6 50-17.8 39.9-10.4 86.9-16.4 129.1-16.4 45.1 0 91.3 11.9 114.9 19 17.7 5.3 60 19.2 72.3 33.4 8.4 9.8 10.3 24.7 4.6 37.2-6.3 13.7-20.3 21.9-37.5 21.9-194 0-317.5 0.5-338.8 1.3-0.3 0.1-0.5 0.1-0.8 0.1z m10.8-33.9z m174.5-39c-37.3 0-79.3 5.1-115.1 14.1-26.2 6.5-42 13.4-50.7 18.4 58.3-0.8 209.1-0.9 308.6-0.9-10-4.4-24.6-9.9-43-15.3-35.8-10.5-71.2-16.3-99.8-16.3z" fill="#333333" p-id="4242"></path><path d="M757.7 848.3c-6.7 0-13.5-1-20.1-2.9l-224.8-67.1c-55.8-16.7-115.7-20-173-9.7L95.9 812.3l-7.1-39.4 243.8-43.8c63.5-11.4 129.7-7.7 191.5 10.8L749 807c10.6 3.2 22.1 0.3 30-7.6l0.3-0.3 128.5-122.5c-15.2-10.2-36-8.5-49.3 4.9l-0.4 0.4-59.9 56.9c-18.3 18.2-45 24.8-69.7 17.4l-165-49.8 11.6-38.3 165 49.8c10.7 3.2 22.2 0.3 30.1-7.6l0.4-0.4 59.9-56.9c30.8-30.6 80.9-30.6 111.6 0.2 6.2 6.2 9.5 14.3 9.5 23s-3.4 16.9-9.5 23l-0.3 0.3-134.7 128.4c-13.3 13.2-31.2 20.4-49.4 20.4z" fill="#A25C11" p-id="4243"></path><path d="M680.4 735.5c-13.2 0-28.1-2.3-45-7.9l12.5-38c34.6 11.4 60.3 6 76.4-16.1 0.5-0.7 0.7-1.5 0.4-2.2-0.3-0.9-0.9-1.1-1.2-1.2l-192.5-59c-25.1-7.7-49.6-8.2-70.9-1.5C323.4 652.4 225 655.9 141 620.7c-9.7-4.1-28.5-15.7-50.2-29.3-3.5-2.2-6.6-4.2-9-5.6l21-34c2.4 1.5 5.6 3.5 9.3 5.8 12 7.5 36.9 23.1 44.4 26.3 74.7 31.3 164.6 27.5 291.7-12.4 29.1-9.1 61.8-8.6 94.6 1.5l192.4 59.1c12.9 4 23.2 14 27.5 26.8 4.3 13 2.1 27.3-6 38.4-11.8 15.9-35.5 38.2-76.3 38.2z" fill="#A25C11" p-id="4244"></path></svg>