<?xml version="1.0" standalone="no"?><!DOCTYPE svg PUBLIC "-//W3C//DTD SVG 1.1//EN" "http://www.w3.org/Graphics/SVG/1.1/DTD/svg11.dtd"><svg t="1742783703032" class="icon" viewBox="0 0 1024 1024" version="1.1" xmlns="http://www.w3.org/2000/svg" p-id="4074" xmlns:xlink="http://www.w3.org/1999/xlink" width="128" height="128"><path d="M202.6 546.1c-9.9 0-18.4-7.3-19.8-17.3l-38-282.2c-1.5-10.9 6.2-21 17.2-22.5l115.2-15.5c5.3-0.7 10.6 0.7 14.8 3.9 4.2 3.2 7 8 7.7 13.2l38 282.2c0.7 5.3-0.7 10.6-3.9 14.8-3.2 4.2-8 7-13.2 7.7l-115.2 15.5c-1 0.1-1.9 0.2-2.8 0.2z m-15.4-285l32.6 242.6 75.5-10.2-32.6-242.6-75.5 10.2z" fill="#333333" p-id="4075"></path><path d="M240.426 521.075l39.644-5.332 44.736 332.613-39.644 5.332zM561.3 497.1H445.1c-11 0-20-9-20-20V192.3c0-11 9-20 20-20h116.2c11 0 20 9 20 20V477c0 11.1-8.9 20.1-20 20.1z m-96.2-40h76.2V212.3h-76.2v244.8z" fill="#333333" p-id="4076"></path><path d="M483.2 477.1h40V854h-40zM805.2 548.6c-1.4 0-2.8-0.1-4.1-0.4L687.4 524c-10.8-2.3-17.7-12.9-15.4-23.7l59-278.6c2.3-10.8 12.9-17.7 23.7-15.4l113.7 24.1c5.2 1.1 9.7 4.2 12.6 8.7 2.9 4.4 3.9 9.9 2.8 15l-59 278.6c-1.1 5.2-4.2 9.7-8.7 12.6-3.2 2.2-7 3.3-10.9 3.3z m-89.9-59.5l74.5 15.8 50.7-239.4-74.5-15.9-50.7 239.5z" fill="#333333" p-id="4077"></path><path d="M650.734 881.025l78.132-368.722 39.132 8.292-78.132 368.722z" fill="#333333" p-id="4078"></path><path d="M731.3 854.3c-29.4 0-58-1.5-85.7-4.5-59.3-6.5-114.4-19.9-163.7-39.9-129-52.4-229.1-68.8-290.3-73.2-66.2-4.8-102.5 2.8-102.9 2.9L80 700.4c1.6-0.4 40.7-8.8 111.9-3.9 64.5 4.5 169.8 21.3 304.9 76.2 103.9 42.2 216.9 44.7 293.5 39.4 83.7-5.8 143.3-22 143.9-22.2l10.6 38.6c-2.5 0.7-63.4 17.3-150.8 23.5-21.1 1.5-42.1 2.3-62.7 2.3z" fill="#A25C11" p-id="4079"></path></svg>