<?xml version="1.0" standalone="no"?><!DOCTYPE svg PUBLIC "-//W3C//DTD SVG 1.1//EN" "http://www.w3.org/Graphics/SVG/1.1/DTD/svg11.dtd"><svg t="1742783639000" class="icon" viewBox="0 0 1024 1024" version="1.1" xmlns="http://www.w3.org/2000/svg" p-id="3247" xmlns:xlink="http://www.w3.org/1999/xlink" width="128" height="128"><path d="M244.2 233.4h40v212h-40zM749.8 233.4h40v212h-40z" fill="#333333" p-id="3248"></path><path d="M769.8 799.7H264.2c-11 0-20-9-20-20V442.5c0-11 9-20 20-20h505.7c11 0 20 9 20 20v337.1c-0.1 11.1-9 20.1-20.1 20.1z m-485.6-40h465.7V462.5H284.2v297.2z" fill="#A25C11" p-id="3249"></path><path d="M264.2 591.1h505.7v40H264.2z" fill="#A25C11" p-id="3250"></path><path d="M895.2 872.9H138.8V278.5c0-35.9 29.2-65.1 65.1-65.1h150.6c42-34.2 100.8-53.7 162.5-53.7s120.5 19.5 162.5 53.7h150.6c35.9 0 65.1 29.2 65.1 65.1v594.4z m-716.4-40h676.4V278.5c0-13.8-11.2-25.1-25.1-25.1H664.6l-5.7-5c-35.1-31-86.9-48.7-142-48.7-55.1 0-106.8 17.8-142 48.7l-5.7 5H203.9c-13.8 0-25.1 11.2-25.1 25.1v554.4z" fill="#333333" p-id="3251"></path><path d="M517 505.8m-20 0a20 20 0 1 0 40 0 20 20 0 1 0-40 0Z" fill="#A25C11" p-id="3252"></path><path d="M517 674.3m-20 0a20 20 0 1 0 40 0 20 20 0 1 0-40 0Z" fill="#A25C11" p-id="3253"></path></svg>