<?xml version="1.0" standalone="no"?><!DOCTYPE svg PUBLIC "-//W3C//DTD SVG 1.1//EN" "http://www.w3.org/Graphics/SVG/1.1/DTD/svg11.dtd"><svg t="1741956898862" class="icon" viewBox="0 0 1024 1024" version="1.1" xmlns="http://www.w3.org/2000/svg" p-id="3247" xmlns:xlink="http://www.w3.org/1999/xlink" width="64" height="64"><path d="M428.9 774.3c-9.2 0-17.2-6.3-19.4-15.2l-50-200.7 38.8-9.7 30.6 122.9 30.6-122.9 38.8 9.7-50 200.7c-2.2 9-10.2 15.2-19.4 15.2zM641.2 774.3c-4.4 0-8.8-1.4-12.4-4.3-39.4-31.3-61.7-79.8-64.5-140.4-2-44.3 7.1-79.6 7.5-81l38.7 10.1c-0.1 0.3-8.1 31.8-6.2 70.1 2.1 41.7 14.4 74.7 36.8 98.4 54.5-59 30.8-168 30.6-169.2l39-8.8c1.4 6.1 32.6 150.5-57.2 220.8-3.6 2.9-7.9 4.3-12.3 4.3z" fill="#A25C11" p-id="3248"></path><path d="M818.1 247.6H257.8c-28.4 0-55.9-8.1-81.9-24-25.2-15.5-47.6-37.6-66.7-65.8l33.2-22.4c31.4 46.6 72.4 72.2 115.4 72.2h560.3c43 0 84-25.6 115.4-72.2l33.2 22.4c-19 28.2-41.5 50.3-66.7 65.8-26 16-53.5 24-81.9 24z" fill="#333333" p-id="3249"></path><path d="M233.5 227.6h40v670.6h-40zM803.4 227.6h40v670.6h-40z" fill="#333333" p-id="3250"></path><path d="M264.5 794.8h548.9v40H264.5zM193.4 878.2h120.1v40H193.4zM763.4 878.2h120.1v40H763.4zM478.9 573.7h-100c-11 0-20-9-20-20v-326c0-11 9-20 20-20H479c11 0 20 9 20 20v326c-0.1 11-9 20-20.1 20z m-80-40H459v-286h-60.1v286zM691.2 573.7h-100c-11 0-20-9-20-20v-326c0-11 9-20 20-20h100.1c11 0 20 9 20 20v326c-0.1 11-9 20-20.1 20z m-80-40h60.1v-286h-60.1v286z" fill="#333333" p-id="3251"></path></svg>