<?xml version="1.0" standalone="no"?><!DOCTYPE svg PUBLIC "-//W3C//DTD SVG 1.1//EN" "http://www.w3.org/Graphics/SVG/1.1/DTD/svg11.dtd"><svg t="1742783680287" class="icon" viewBox="0 0 1024 1024" version="1.1" xmlns="http://www.w3.org/2000/svg" p-id="3578" xmlns:xlink="http://www.w3.org/1999/xlink" width="128" height="128"><path d="M471.6 669.1h40v96.2h-40zM471.6 365.5h40v135.3h-40z" fill="#A25C11" p-id="3579"></path><path d="M491.6 694.9c-5.3 0-10.4-2.1-14.1-5.9l-102-102c-7.8-7.8-7.8-20.5 0-28.3l102-102c7.8-7.8 20.5-7.8 28.3 0l102 102c3.8 3.8 5.9 8.8 5.9 14.1s-2.1 10.4-5.9 14.1l-102 102c-3.8 3.9-8.9 6-14.2 6z m-73.7-122l73.7 73.7 73.7-73.7-73.7-73.7-73.7 73.7z" fill="#A25C11" p-id="3580"></path><path d="M688.2 244.1H295c-24.4 0-48-6.7-70.3-19.8-21.6-12.7-40.9-31-57.2-54.1l32.7-23c25.8 36.7 59.5 56.9 94.7 56.9h393.2c35.3 0 68.9-20.2 94.7-56.9l32.7 23c-16.3 23.2-35.6 41.4-57.2 54.1-22.1 13.2-45.8 19.8-70.1 19.8zM756.4 400.6H226.8c-26.5 0-52.2-7.2-76.4-21.5-23.6-13.9-44.6-33.8-62.4-59.1l32.7-23c28.9 41 66.5 63.6 106.1 63.6h529.6c39.6 0 77.2-22.6 106.1-63.6l32.7 23c-17.8 25.3-38.8 45.2-62.4 59.1-24.2 14.3-49.9 21.5-76.4 21.5z" fill="#333333" p-id="3581"></path><path d="M776 785.2H207.2V360.6H776v424.6z m-528.8-40H736V400.6H247.2v344.6z" fill="#333333" p-id="3582"></path><path d="M891.4 881.4H91.8V745.2h799.6v136.2z m-759.6-40h719.6v-56.2H131.8v56.2zM688.904 233.447l38.164-11.984 48.086 153.133-38.164 11.984zM208.065 374.565l48.086-153.133 38.164 11.984-48.086 153.133z" fill="#333333" p-id="3583"></path></svg>