<?xml version="1.0" standalone="no"?><!DOCTYPE svg PUBLIC "-//W3C//DTD SVG 1.1//EN" "http://www.w3.org/Graphics/SVG/1.1/DTD/svg11.dtd"><svg t="1742783713544" class="icon" viewBox="0 0 1024 1024" version="1.1" xmlns="http://www.w3.org/2000/svg" p-id="4405" xmlns:xlink="http://www.w3.org/1999/xlink" width="128" height="128"><path d="M268.9 504.3h491.7v40H268.9zM268.9 590.7h491.7v40H268.9z" fill="#A25C11" p-id="4406"></path><path d="M736.8 772.8l-28.3-28.3c20.7-20.7 32.1-48.2 32.1-77.5V501.1c0-40 15.6-77.5 43.8-105.8l0.8-0.8 35.6-31.8H208.7l35.6 31.8c0.3 0.3 0.6 0.5 0.8 0.8 28.3 28.3 43.8 65.8 43.8 105.8V667c0 29.1 10.9 55.4 31.5 76.1l-28.3 28.3c-27.9-27.9-43.2-64.9-43.2-104.3v-166c0-29.1-11.3-56.5-31.7-77.1L143 357.7c-6.2-5.5-8.3-14.3-5.4-22 3-7.8 10.4-12.9 18.7-12.9h717c8.3 0 15.7 5.1 18.7 12.9 3 7.8 0.8 16.5-5.4 22L812.3 424c-20.5 20.7-31.7 48-31.7 77.1V667c0 40-15.6 77.5-43.8 105.8z" fill="#333333" p-id="4407"></path><path d="M765.6 897.4H262.9c-11 0-20-9-20-20 0-20.2-3.9-34.1-25.4-54.2l-64.4-56.1c-6.3-5.5-8.5-14.3-5.6-22.1s10.4-13 18.7-13h697c8.3 0 15.8 5.2 18.7 13s0.7 16.6-5.6 22.1l-64.1 55.8c-22.8 22.9-26.6 35.4-26.6 54.5 0 11-8.9 20-20 20z m-484.1-40h465.7c3.8-22.5 14.9-40.7 37.3-63.2l1-1 24.4-21.2H219.7l24.4 21.2c0.2 0.2 0.4 0.3 0.5 0.5 21.9 20.5 33.2 39.5 36.9 63.7zM800.1 342.7h-40c0-39.2-44.6-83-104.3-83h-282c-59.7 0-104.3 43.8-104.3 83h-40c0-31.4 15.8-62.9 43.4-86.4 27.7-23.6 63.5-36.6 100.9-36.6h281.9c37.4 0 73.2 13 100.9 36.6 27.6 23.6 43.5 55.1 43.5 86.4z" fill="#333333" p-id="4408"></path><path d="M572.5 259.7H457c-7 0-13.6-3.7-17.2-9.7l-47-78.7c-3.7-6.2-3.8-13.9-0.2-20.1 3.6-6.3 10.2-10.1 17.4-10.1h209.6c7.2 0 13.8 3.9 17.4 10.1 3.6 6.3 3.5 13.9-0.2 20.1l-47 78.7c-3.7 6-10.2 9.7-17.3 9.7z m-104.2-40h92.9l23.1-38.7H445.2l23.1 38.7zM827.2 667.3H766v-40h61.2c40.9 0 74.1-33.2 74.1-74.1s-33.2-74.1-74.1-74.1H766v-40h61.2c62.9 0 114.1 51.2 114.1 114.1-0.1 62.9-51.2 114.1-114.1 114.1z" fill="#333333" p-id="4409"></path></svg>