<?xml version="1.0" standalone="no"?><!DOCTYPE svg PUBLIC "-//W3C//DTD SVG 1.1//EN" "http://www.w3.org/Graphics/SVG/1.1/DTD/svg11.dtd"><svg t="1741956925161" class="icon" viewBox="0 0 1024 1024" version="1.1" xmlns="http://www.w3.org/2000/svg" p-id="3578" xmlns:xlink="http://www.w3.org/1999/xlink" width="64" height="64"><path d="M775.7 426c-32.2 0-58.4-26.2-58.4-58.4s26.2-58.4 58.4-58.4 58.4 26.2 58.4 58.4-26.2 58.4-58.4 58.4z m0-76.8c-10.2 0-18.4 8.3-18.4 18.4s8.3 18.4 18.4 18.4 18.4-8.3 18.4-18.4-8.2-18.4-18.4-18.4zM251.2 426c-32.2 0-58.4-26.2-58.4-58.4s26.2-58.4 58.4-58.4 58.4 26.2 58.4 58.4-26.2 58.4-58.4 58.4z m0-76.8c-10.2 0-18.4 8.3-18.4 18.4S241 386 251.2 386s18.4-8.3 18.4-18.4-8.3-18.4-18.4-18.4zM363.3 347.6h300.2v40H363.3zM887.9 347.6h98v40h-98zM41 347.6h98v40H41z" fill="#A25C11" p-id="3579"></path><path d="M887.9 853.1H139c-11 0-20-9-20-20V548.7c0-11 9-20 20-20h748.9c11 0 20 9 20 20v284.4c0 11.1-9 20-20 20z m-728.9-40h708.9V568.7H159v244.4z" fill="#333333" p-id="3580"></path><path d="M363.3 568.7H139c-11 0-20-9-20-20V329.4c0-45.1 36.7-81.9 81.9-81.9h162.5c11 0 20 9 20 20v281.2c-0.1 11.1-9 20-20.1 20z m-204.3-40h184.3V287.5H200.9c-23.1 0-41.9 18.8-41.9 41.9v199.3zM887.9 568.7H663.5c-11 0-20-9-20-20V267.5c0-11 9-20 20-20H826c45.1 0 81.9 36.7 81.9 81.9v219.4c0 11-9 19.9-20 19.9z m-204.4-40h184.3V329.4c0-23.1-18.8-41.9-41.9-41.9H683.5v241.2z" fill="#333333" p-id="3581"></path></svg>