<?xml version="1.0" standalone="no"?><!DOCTYPE svg PUBLIC "-//W3C//DTD SVG 1.1//EN" "http://www.w3.org/Graphics/SVG/1.1/DTD/svg11.dtd"><svg t="1742783668644" class="icon" viewBox="0 0 1024 1024" version="1.1" xmlns="http://www.w3.org/2000/svg" p-id="3414" xmlns:xlink="http://www.w3.org/1999/xlink" width="128" height="128"><path d="M143.7 161.9h775.6v40H143.7z" fill="#333333" p-id="3415"></path><path d="M531.5 934.4L248.3 787.1V161.9h566.4v625.2L531.5 934.4zM288.3 762.9l243.2 126.5 243.2-126.5v-561H288.3v561z" fill="#333333" p-id="3416"></path><path d="M491.5 290.4v56.9h-56.9v-56.9h56.9m40-40H394.6v136.9h136.9V250.4zM491.5 461.4v56.9h-56.9v-56.9h56.9m40-40H394.6v136.9h136.9V421.4zM491.5 632.5v56.9h-56.9v-56.9h56.9m40-40H394.6v136.9h136.9V592.5zM648.3 250.4h40V661h-40z" fill="#A25C11" p-id="3417"></path></svg>