<?xml version="1.0" standalone="no"?><!DOCTYPE svg PUBLIC "-//W3C//DTD SVG 1.1//EN" "http://www.w3.org/Graphics/SVG/1.1/DTD/svg11.dtd"><svg t="1742783693266" class="icon" viewBox="0 0 1024 1024" version="1.1" xmlns="http://www.w3.org/2000/svg" p-id="3909" xmlns:xlink="http://www.w3.org/1999/xlink" width="128" height="128"><path d="M210.9 565.2h549.5v40H210.9zM210.9 723.8h549.5v40H210.9z" fill="#A25C11" p-id="3910"></path><path d="M679.6 896H289.3c-12.1 0-23.6-4.6-32.4-13.1l-10.5-10.1c-27-26-48-56.6-62.2-90.9-13.8-33.1-20.7-68.1-20.7-104.1s7-71 20.7-104.1c14.3-34.3 35.2-64.9 62.2-90.9l10.5-10.1c8.7-8.4 20.3-13.1 32.4-13.1h390.3c12.1 0 23.6 4.6 32.4 13.1l10.5 10.1c27 26 48 56.6 62.2 90.9 13.8 33.1 20.7 68.1 20.7 104.1s-7 71-20.7 104.1c-14.3 34.3-35.2 64.9-62.2 90.9L712 883c-8.7 8.4-20.2 13-32.4 13zM289.3 499.7c-1.7 0-3.4 0.7-4.7 1.9l-10.5 10.1c-45.6 43.9-70.7 102.9-70.7 166.2 0 63.3 25.1 122.3 70.7 166.2l10.5 10.1c1.3 1.2 2.9 1.9 4.7 1.9h390.3c1.7 0 3.4-0.7 4.7-1.9l10.5-10.1c45.6-43.9 70.7-102.9 70.7-166.2 0-63.3-25.1-122.3-70.7-166.2l-10.5-10.1c-1.3-1.2-2.9-1.9-4.7-1.9H289.3zM601.9 438.4c-10.8 0-21.7-2-32.1-6.1-21.8-8.6-39-25-48.3-46.4l-2.9-6.6c-9.3-21.4-9.8-45.1-1.2-67 8.6-21.8 25-39 46.4-48.3l39.3-17.2c21.4-9.3 45.2-9.8 67-1.2 21.8 8.6 39 25 48.3 46.4l2.9 6.6c9.3 21.4 9.8 45.2 1.2 67-8.6 21.8-25 39-46.4 48.3l-39.3 17.2c-11.2 4.9-23 7.3-34.9 7.3z m36-158.9c-6.4 0-12.8 1.3-18.9 4l-39.3 17.2c-11.6 5.1-20.5 14.4-25.2 26.3-4.7 11.9-4.4 24.8 0.6 36.4l2.9 6.6c5.1 11.6 14.4 20.5 26.3 25.2 11.9 4.7 24.8 4.4 36.4-0.6l39.3-17.2c11.6-5.1 20.5-14.4 25.2-26.3 4.7-11.9 4.4-24.8-0.6-36.4l-2.9-6.6c-5.1-11.6-14.4-20.5-26.3-25.2-5.7-2.3-11.6-3.4-17.5-3.4z" fill="#333333" p-id="3911"></path><path d="M693.44 285.023l195.721-85.547 16.02 36.652-195.722 85.547zM400.5 438.4c-11.9 0-23.7-2.4-34.9-7.3L326.4 414c-44.2-19.3-64.5-71.1-45.2-115.3l2.9-6.6c9.3-21.4 26.5-37.8 48.3-46.4 21.8-8.6 45.6-8.1 67 1.2l39.3 17.2c21.4 9.3 37.8 26.5 46.4 48.3s8.1 45.6-1.2 67L481 386c-9.3 21.4-26.5 37.8-48.3 46.4-10.5 4-21.4 6-32.2 6zM320.7 308l-2.9 6.6c-10.5 24 0.5 52.1 24.5 62.6l39.3 17.2c11.6 5.1 24.5 5.3 36.4 0.6 11.9-4.7 21.2-13.6 26.3-25.2l2.9-6.6c5.1-11.6 5.3-24.5 0.6-36.4-4.7-11.9-13.6-21.2-25.2-26.3l-39.3-17.2c-11.6-5.1-24.5-5.3-36.4-0.6-11.8 4.8-21.1 13.8-26.2 25.3z" fill="#333333" p-id="3912"></path><path d="M97.264 236.156l16.02-36.652 195.722 85.547-16.02 36.652z" fill="#333333" p-id="3913"></path></svg>