<?xml version="1.0" standalone="no"?><!DOCTYPE svg PUBLIC "-//W3C//DTD SVG 1.1//EN" "http://www.w3.org/Graphics/SVG/1.1/DTD/svg11.dtd"><svg t="1741956915902" class="icon" viewBox="0 0 1024 1024" version="1.1" xmlns="http://www.w3.org/2000/svg" p-id="3412" xmlns:xlink="http://www.w3.org/1999/xlink" width="64" height="64"><path d="M196.8 867.8H180c-36.6 0-66.3-29.7-66.3-66.3V292.6c0-36.6 29.7-66.3 66.3-66.3h16.8c36.6 0 66.3 29.7 66.3 66.3v508.9c0 36.6-29.7 66.3-66.3 66.3zM180 266.3c-14.5 0-26.3 11.8-26.3 26.3v508.9c0 14.5 11.8 26.3 26.3 26.3h16.8c14.5 0 26.3-11.8 26.3-26.3V292.6c0-14.5-11.8-26.3-26.3-26.3H180z" fill="#333333" p-id="3413"></path><path d="M715.9 533.9h-93.8c-11 0-20-9-20-20V412.3c0-11 9-20 20-20h93.8c11 0 20 9 20 20v101.6c0 11-8.9 20-20 20z m-73.7-40H696v-61.6h-53.8v61.6z" fill="#A25C11" p-id="3414"></path><path d="M841.5 812.7H223.1V281.5h618.4v531.2z m-578.4-40h538.4V321.5H263.1v451.2z" fill="#333333" p-id="3415"></path><path d="M884.6 867.8h-16.8c-36.6 0-66.3-29.7-66.3-66.3V292.6c0-36.6 29.7-66.3 66.3-66.3h16.8c36.6 0 66.3 29.7 66.3 66.3v508.9c0 36.6-29.8 66.3-66.3 66.3z m-16.9-601.5c-14.5 0-26.3 11.8-26.3 26.3v508.9c0 14.5 11.8 26.3 26.3 26.3h16.8c14.5 0 26.3-11.8 26.3-26.3V292.6c0-14.5-11.8-26.3-26.3-26.3h-16.8z" fill="#333333" p-id="3416"></path><path d="M474.2 392.7h40v308.7h-40zM347.2 392.7h40v308.7h-40z" fill="#A25C11" p-id="3417"></path></svg>